<mxfile host="app.diagrams.net" agent="Mozilla/5.0 (X11; Linux x86_64; rv:123.0) Gecko/20100101 Firefox/123.0" version="24.8.3">
  <diagram name="Página-1" id="ARPx_ute6YUo1yinALiA">
    <mxGraphModel dx="1434" dy="750" grid="1" gridSize="10" guides="1" tooltips="1" connect="1" arrows="1" fold="1" page="1" pageScale="1" pageWidth="1169" pageHeight="1654" math="0" shadow="0">
      <root>
        <mxCell id="0" />
        <mxCell id="1" parent="0" />
        <mxCell id="usopbkgO_LE9u6HZXmKx-1" value="" style="whiteSpace=wrap;html=1;aspect=fixed;fillColor=none;strokeWidth=2;" parent="1" vertex="1">
          <mxGeometry x="285" y="65" width="620" height="620" as="geometry" />
        </mxCell>
        <mxCell id="usopbkgO_LE9u6HZXmKx-11" style="edgeStyle=orthogonalEdgeStyle;rounded=0;orthogonalLoop=1;jettySize=auto;html=1;entryX=0;entryY=0.5;entryDx=0;entryDy=0;exitX=0.5;exitY=0;exitDx=0;exitDy=0;exitPerimeter=0;" parent="1" source="usopbkgO_LE9u6HZXmKx-2" target="usopbkgO_LE9u6HZXmKx-6" edge="1">
          <mxGeometry relative="1" as="geometry">
            <mxPoint x="190" y="470" as="sourcePoint" />
            <Array as="points">
              <mxPoint x="155" y="320" />
              <mxPoint x="320" y="320" />
              <mxPoint x="320" y="155" />
            </Array>
          </mxGeometry>
        </mxCell>
        <mxCell id="usopbkgO_LE9u6HZXmKx-13" style="edgeStyle=orthogonalEdgeStyle;rounded=0;orthogonalLoop=1;jettySize=auto;html=1;exitX=0.6;exitY=0.688;exitDx=0;exitDy=0;exitPerimeter=0;entryX=0;entryY=0.5;entryDx=0;entryDy=0;" parent="1" source="usopbkgO_LE9u6HZXmKx-2" target="usopbkgO_LE9u6HZXmKx-5" edge="1">
          <mxGeometry relative="1" as="geometry" />
        </mxCell>
        <mxCell id="usopbkgO_LE9u6HZXmKx-14" style="edgeStyle=orthogonalEdgeStyle;rounded=0;orthogonalLoop=1;jettySize=auto;html=1;exitX=0.75;exitY=0.1;exitDx=0;exitDy=0;exitPerimeter=0;entryX=0;entryY=0.5;entryDx=0;entryDy=0;" parent="1" source="usopbkgO_LE9u6HZXmKx-2" target="usopbkgO_LE9u6HZXmKx-7" edge="1">
          <mxGeometry relative="1" as="geometry" />
        </mxCell>
        <mxCell id="usopbkgO_LE9u6HZXmKx-2" value="CLIENTE" style="shape=umlActor;html=1;verticalLabelPosition=bottom;verticalAlign=top;align=center;" parent="1" vertex="1">
          <mxGeometry x="130" y="330" width="50" height="80" as="geometry" />
        </mxCell>
        <mxCell id="usopbkgO_LE9u6HZXmKx-10" style="edgeStyle=orthogonalEdgeStyle;rounded=0;orthogonalLoop=1;jettySize=auto;html=1;exitX=1;exitY=1;exitDx=0;exitDy=0;exitPerimeter=0;entryX=0;entryY=0.5;entryDx=0;entryDy=0;" parent="1" source="usopbkgO_LE9u6HZXmKx-3" target="usopbkgO_LE9u6HZXmKx-9" edge="1">
          <mxGeometry relative="1" as="geometry">
            <Array as="points">
              <mxPoint x="420" y="570" />
              <mxPoint x="420" y="625" />
            </Array>
          </mxGeometry>
        </mxCell>
        <mxCell id="usopbkgO_LE9u6HZXmKx-3" value="ADMINISTRADOR&lt;div&gt;&lt;br&gt;&lt;/div&gt;" style="shape=umlActor;html=1;verticalLabelPosition=bottom;verticalAlign=top;align=center;" parent="1" vertex="1">
          <mxGeometry x="135" y="500" width="40" height="70" as="geometry" />
        </mxCell>
        <mxCell id="usopbkgO_LE9u6HZXmKx-5" value="AÑADIR PRODUCTOS AL CARRITO" style="ellipse;whiteSpace=wrap;html=1;fillColor=#d5e8d4;strokeColor=#82b366;" parent="1" vertex="1">
          <mxGeometry x="500" y="460" width="140" height="70" as="geometry" />
        </mxCell>
        <mxCell id="usopbkgO_LE9u6HZXmKx-6" value="BUSCAR PRODUCTOS" style="ellipse;whiteSpace=wrap;html=1;fillColor=#d5e8d4;strokeColor=#82b366;" parent="1" vertex="1">
          <mxGeometry x="500" y="120" width="140" height="70" as="geometry" />
        </mxCell>
        <mxCell id="usopbkgO_LE9u6HZXmKx-7" value="REALIZAR PAGO" style="ellipse;whiteSpace=wrap;html=1;fillColor=#d5e8d4;strokeColor=#82b366;" parent="1" vertex="1">
          <mxGeometry x="490" y="220" width="140" height="70" as="geometry" />
        </mxCell>
        <mxCell id="usopbkgO_LE9u6HZXmKx-8" value="REALIZAR PEDIDO" style="ellipse;whiteSpace=wrap;html=1;fillColor=#d5e8d4;strokeColor=#82b366;" parent="1" vertex="1">
          <mxGeometry x="630" y="340" width="140" height="70" as="geometry" />
        </mxCell>
        <mxCell id="usopbkgO_LE9u6HZXmKx-9" value="GESTIONAR CATÁLOGO DE PRODUCTOS" style="ellipse;whiteSpace=wrap;html=1;fillColor=#fff2cc;strokeColor=#d6b656;" parent="1" vertex="1">
          <mxGeometry x="500" y="590" width="140" height="70" as="geometry" />
        </mxCell>
        <mxCell id="usopbkgO_LE9u6HZXmKx-15" value="&amp;lt;&amp;lt;include&amp;gt;&amp;gt;" style="edgeStyle=none;html=1;endArrow=open;verticalAlign=bottom;dashed=1;labelBackgroundColor=none;rounded=0;entryX=0.5;entryY=1;entryDx=0;entryDy=0;exitX=0.5;exitY=0;exitDx=0;exitDy=0;" parent="1" source="usopbkgO_LE9u6HZXmKx-8" target="usopbkgO_LE9u6HZXmKx-7" edge="1">
          <mxGeometry width="160" relative="1" as="geometry">
            <mxPoint x="500" y="380" as="sourcePoint" />
            <mxPoint x="640" y="400" as="targetPoint" />
          </mxGeometry>
        </mxCell>
        <mxCell id="usopbkgO_LE9u6HZXmKx-17" value="&lt;div&gt;sistema&amp;nbsp;&lt;/div&gt;" style="shape=umlActor;html=1;verticalLabelPosition=bottom;verticalAlign=top;align=center;" parent="1" vertex="1">
          <mxGeometry x="1010" y="330" width="40" height="70" as="geometry" />
        </mxCell>
        <mxCell id="XKFruiOzS2Bxmwwr4Bl2-2" value="Gestionar la compra" style="rounded=0;whiteSpace=wrap;html=1;fillColor=none;strokeColor=none;fontStyle=1" vertex="1" parent="1">
          <mxGeometry x="510" y="80" width="100" height="20" as="geometry" />
        </mxCell>
      </root>
    </mxGraphModel>
  </diagram>
</mxfile>
